<mxfile host="Electron" agent="Mozilla/5.0 (X11; Linux x86_64) AppleWebKit/537.36 (KHTML, like Gecko) draw.io/26.2.2 Chrome/134.0.6998.205 Electron/35.2.0 Safari/537.36" version="26.2.2">
  <diagram name="Page-1" id="3x90wIXVfekAreESvdz6">
    <mxGraphModel dx="985" dy="581" grid="1" gridSize="10" guides="1" tooltips="1" connect="1" arrows="1" fold="1" page="1" pageScale="1" pageWidth="827" pageHeight="1169" math="0" shadow="0">
      <root>
        <mxCell id="0" />
        <mxCell id="1" parent="0" />
        <mxCell id="6wO7kHI1mZ5h2nyOUCcE-2" value="" style="verticalLabelPosition=bottom;shadow=0;dashed=0;align=center;html=1;verticalAlign=top;shape=mxgraph.electrical.logic_gates.d_type_flip-flop;fillColor=#ffe6cc;strokeColor=#d79b00;" parent="1" vertex="1">
          <mxGeometry x="110" y="90" width="100" height="80" as="geometry" />
        </mxCell>
        <mxCell id="6wO7kHI1mZ5h2nyOUCcE-7" value="" style="verticalLabelPosition=bottom;shadow=0;dashed=0;align=center;html=1;verticalAlign=top;shape=mxgraph.electrical.logic_gates.logic_gate;operation=or;fillColor=#dae8fc;strokeColor=#6c8ebf;" parent="1" vertex="1">
          <mxGeometry x="460" y="100" width="100" height="60" as="geometry" />
        </mxCell>
        <mxCell id="6wO7kHI1mZ5h2nyOUCcE-9" value="" style="verticalLabelPosition=bottom;shadow=0;dashed=0;align=center;html=1;verticalAlign=top;shape=mxgraph.electrical.logic_gates.inverter_2;fillColor=#ffe6cc;strokeColor=#d79b00;" parent="1" vertex="1">
          <mxGeometry x="220" y="100" width="100" height="60" as="geometry" />
        </mxCell>
        <mxCell id="6wO7kHI1mZ5h2nyOUCcE-10" style="edgeStyle=orthogonalEdgeStyle;rounded=0;orthogonalLoop=1;jettySize=auto;html=1;exitX=1;exitY=0.25;exitDx=0;exitDy=0;exitPerimeter=0;entryX=0;entryY=0.5;entryDx=0;entryDy=0;entryPerimeter=0;endArrow=none;startFill=0;fillColor=#ffe6cc;strokeColor=#d79b00;" parent="1" source="6wO7kHI1mZ5h2nyOUCcE-2" target="6wO7kHI1mZ5h2nyOUCcE-9" edge="1">
          <mxGeometry relative="1" as="geometry" />
        </mxCell>
        <mxCell id="6wO7kHI1mZ5h2nyOUCcE-14" value="" style="verticalLabelPosition=bottom;shadow=0;dashed=0;align=center;html=1;verticalAlign=top;shape=mxgraph.electrical.logic_gates.d_type_flip-flop;fillColor=#dae8fc;strokeColor=#6c8ebf;" parent="1" vertex="1">
          <mxGeometry x="340" y="90" width="100" height="80" as="geometry" />
        </mxCell>
        <mxCell id="6wO7kHI1mZ5h2nyOUCcE-15" style="edgeStyle=orthogonalEdgeStyle;rounded=0;orthogonalLoop=1;jettySize=auto;html=1;exitX=1;exitY=0.5;exitDx=0;exitDy=0;exitPerimeter=0;entryX=0;entryY=0.25;entryDx=0;entryDy=0;entryPerimeter=0;endArrow=none;startFill=0;fillColor=#d5e8d4;strokeColor=#000000;" parent="1" source="6wO7kHI1mZ5h2nyOUCcE-9" target="6wO7kHI1mZ5h2nyOUCcE-14" edge="1">
          <mxGeometry relative="1" as="geometry" />
        </mxCell>
        <mxCell id="6wO7kHI1mZ5h2nyOUCcE-16" style="edgeStyle=orthogonalEdgeStyle;rounded=0;orthogonalLoop=1;jettySize=auto;html=1;exitX=1;exitY=0.25;exitDx=0;exitDy=0;exitPerimeter=0;entryX=0;entryY=0.25;entryDx=0;entryDy=0;entryPerimeter=0;endArrow=none;startFill=0;fillColor=#dae8fc;strokeColor=#6c8ebf;" parent="1" source="6wO7kHI1mZ5h2nyOUCcE-14" target="6wO7kHI1mZ5h2nyOUCcE-7" edge="1">
          <mxGeometry relative="1" as="geometry" />
        </mxCell>
        <mxCell id="6wO7kHI1mZ5h2nyOUCcE-26" value="input" style="text;html=1;align=center;verticalAlign=middle;whiteSpace=wrap;rounded=0;" parent="1" vertex="1">
          <mxGeometry x="73" y="95" width="40" height="30" as="geometry" />
        </mxCell>
        <mxCell id="6wO7kHI1mZ5h2nyOUCcE-27" value="output" style="text;html=1;align=center;verticalAlign=middle;whiteSpace=wrap;rounded=0;" parent="1" vertex="1">
          <mxGeometry x="560" y="115" width="40" height="30" as="geometry" />
        </mxCell>
        <mxCell id="JgcvFFrtBkZEgVIJf8ZU-1" value="" style="shape=curlyBracket;whiteSpace=wrap;html=1;rounded=1;labelPosition=left;verticalLabelPosition=middle;align=right;verticalAlign=middle;rotation=-90;" vertex="1" parent="1">
          <mxGeometry x="221.5" y="75.5" width="20" height="223" as="geometry" />
        </mxCell>
        <mxCell id="JgcvFFrtBkZEgVIJf8ZU-2" value="" style="shape=curlyBracket;whiteSpace=wrap;html=1;rounded=1;labelPosition=left;verticalLabelPosition=middle;align=right;verticalAlign=middle;rotation=-90;" vertex="1" parent="1">
          <mxGeometry x="445.75" y="89.75" width="20" height="194.5" as="geometry" />
        </mxCell>
        <mxCell id="JgcvFFrtBkZEgVIJf8ZU-3" value="Successor" style="text;html=1;align=center;verticalAlign=middle;whiteSpace=wrap;rounded=0;fontStyle=1" vertex="1" parent="1">
          <mxGeometry x="201.5" y="190" width="60" height="30" as="geometry" />
        </mxCell>
        <mxCell id="JgcvFFrtBkZEgVIJf8ZU-4" value="Current" style="text;html=1;align=center;verticalAlign=middle;whiteSpace=wrap;rounded=0;" vertex="1" parent="1">
          <mxGeometry x="425.75" y="190" width="60" height="30" as="geometry" />
        </mxCell>
        <mxCell id="JgcvFFrtBkZEgVIJf8ZU-6" value="" style="verticalLabelPosition=bottom;shadow=0;dashed=0;align=center;html=1;verticalAlign=top;shape=mxgraph.electrical.logic_gates.logic_gate;operation=or;fillColor=#dae8fc;strokeColor=#6c8ebf;" vertex="1" parent="1">
          <mxGeometry x="460" y="244.5" width="100" height="60" as="geometry" />
        </mxCell>
        <mxCell id="JgcvFFrtBkZEgVIJf8ZU-9" value="" style="verticalLabelPosition=bottom;shadow=0;dashed=0;align=center;html=1;verticalAlign=top;shape=mxgraph.electrical.logic_gates.d_type_flip-flop;fillColor=#dae8fc;strokeColor=#6c8ebf;" vertex="1" parent="1">
          <mxGeometry x="340" y="234.5" width="100" height="80" as="geometry" />
        </mxCell>
        <mxCell id="JgcvFFrtBkZEgVIJf8ZU-11" style="edgeStyle=orthogonalEdgeStyle;rounded=0;orthogonalLoop=1;jettySize=auto;html=1;exitX=1;exitY=0.25;exitDx=0;exitDy=0;exitPerimeter=0;entryX=0;entryY=0.25;entryDx=0;entryDy=0;entryPerimeter=0;endArrow=none;startFill=0;fillColor=#dae8fc;strokeColor=#6c8ebf;" edge="1" parent="1" source="JgcvFFrtBkZEgVIJf8ZU-9" target="JgcvFFrtBkZEgVIJf8ZU-6">
          <mxGeometry relative="1" as="geometry" />
        </mxCell>
        <mxCell id="JgcvFFrtBkZEgVIJf8ZU-12" value="input" style="text;html=1;align=center;verticalAlign=middle;whiteSpace=wrap;rounded=0;" vertex="1" parent="1">
          <mxGeometry x="303" y="239.5" width="40" height="30" as="geometry" />
        </mxCell>
        <mxCell id="JgcvFFrtBkZEgVIJf8ZU-13" value="output" style="text;html=1;align=center;verticalAlign=middle;whiteSpace=wrap;rounded=0;" vertex="1" parent="1">
          <mxGeometry x="560" y="259.5" width="40" height="30" as="geometry" />
        </mxCell>
        <mxCell id="JgcvFFrtBkZEgVIJf8ZU-14" value="" style="shape=curlyBracket;whiteSpace=wrap;html=1;rounded=1;labelPosition=left;verticalLabelPosition=middle;align=right;verticalAlign=middle;rotation=-90;" vertex="1" parent="1">
          <mxGeometry x="281.5" y="280" width="20" height="103" as="geometry" />
        </mxCell>
        <mxCell id="JgcvFFrtBkZEgVIJf8ZU-15" value="" style="shape=curlyBracket;whiteSpace=wrap;html=1;rounded=1;labelPosition=left;verticalLabelPosition=middle;align=right;verticalAlign=middle;rotation=-90;" vertex="1" parent="1">
          <mxGeometry x="445.75" y="234.25" width="20" height="194.5" as="geometry" />
        </mxCell>
        <mxCell id="JgcvFFrtBkZEgVIJf8ZU-17" value="Current" style="text;html=1;align=center;verticalAlign=middle;whiteSpace=wrap;rounded=0;" vertex="1" parent="1">
          <mxGeometry x="425.75" y="334.5" width="60" height="30" as="geometry" />
        </mxCell>
        <mxCell id="JgcvFFrtBkZEgVIJf8ZU-18" value="No successor" style="text;html=1;align=center;verticalAlign=middle;whiteSpace=wrap;rounded=0;fontStyle=1" vertex="1" parent="1">
          <mxGeometry x="237.25" y="334.5" width="108.5" height="30" as="geometry" />
        </mxCell>
        <mxCell id="JgcvFFrtBkZEgVIJf8ZU-19" value="" style="shape=flexArrow;endArrow=classic;html=1;rounded=0;" edge="1" parent="1">
          <mxGeometry width="50" height="50" relative="1" as="geometry">
            <mxPoint x="600" y="60" as="sourcePoint" />
            <mxPoint x="110" y="60" as="targetPoint" />
          </mxGeometry>
        </mxCell>
        <mxCell id="JgcvFFrtBkZEgVIJf8ZU-20" value="Backwards BFS direction" style="text;html=1;align=center;verticalAlign=middle;whiteSpace=wrap;rounded=0;" vertex="1" parent="1">
          <mxGeometry x="121.5" y="30" width="168.5" height="30" as="geometry" />
        </mxCell>
      </root>
    </mxGraphModel>
  </diagram>
</mxfile>
